<svg xmlns="http://www.w3.org/2000/svg" version="1.0" width="1024.000000pt" height="1024.000000pt" viewBox="0 0 1024.000000 1024.000000" preserveAspectRatio="xMidYMid meet">
    <g transform="translate(0.000000,1024.000000) scale(0.100000,-0.100000)" fill="#000000" stroke="none">
        <path d="M3054 9549 c-100 -28 -287 -284 -319 -435 -21 -97 -16 -423 9 -556 6 -33 -7 -44 -59 -53 -66 -12 -166 -55 -239 -103 -92 -61 -141 -130 -205 -290 -29 -71 -72 -164 -95 -205 -49 -85 -49 -84 18 -155 28 -30 29 -35 19 -65 -7 -17 -19 -62 -27 -100 -20 -85 -44 -133 -92 -177 -32 -29 -34 -31 -16 -7 11 16 26 52 33 81 14 63 2 96 -35 96 -22 0 -93 -48 -176 -119 -25 -21 -37 -26 -42 -17 -4 7 -76 185 -161 397 -137 339 -198 499 -359 934 -118 319 -274 585 -344 585 -32 0 -38 -41 -24 -155 14 -112 46 -226 120 -425 167 -447 520 -1451 520 -1477 0 -5 -24 -17 -54 -26 -29 -10 -69 -27 -87 -40 -29 -19 -35 -30 -37 -66 -6 -86 54 -121 143 -82 26 12 48 21 50 21 1 0 0 -35 -3 -77 -5 -92 16 -157 76 -244 29 -42 51 -61 98 -84 57 -28 61 -32 52 -55 -19 -52 17 -132 74 -161 111 -57 206 12 216 156 3 50 0 64 -18 88 -12 15 -27 27 -34 27 -28 0 -35 21 -18 65 15 41 17 43 66 49 36 4 68 18 115 49 84 56 215 161 240 193 16 20 21 22 30 10 10 -11 2 -42 -35 -143 -146 -402 -360 -1098 -348 -1135 3 -11 27 -35 54 -54 l48 -34 -11 -43 c-7 -23 -11 -82 -10 -132 4 -176 2 -232 -12 -385 -20 -208 -33 -281 -56 -319 -11 -18 -57 -55 -106 -87 -49 -31 -110 -73 -138 -94 -42 -32 -69 -42 -170 -64 -238 -52 -321 -126 -224 -198 104 -77 752 -138 1474 -138 540 0 1172 37 1460 85 200 34 256 134 115 206 -50 26 -179 57 -325 79 -83 13 -131 43 -186 115 -70 93 -80 127 -95 344 -8 108 -23 241 -34 296 -11 55 -19 125 -17 155 1 30 -1 69 -6 85 -7 29 -7 29 9 10 8 -11 35 -59 59 -107 91 -178 208 -359 241 -372 23 -9 46 39 51 107 7 86 -17 207 -82 406 -30 91 -55 171 -55 176 0 6 19 13 44 17 101 14 243 107 335 217 290 350 345 1006 121 1466 -81 168 -189 292 -320 366 -112 63 -137 86 -212 196 -136 201 -254 292 -471 360 l-119 38 8 70 c5 38 8 106 6 151 -2 63 1 84 13 94 40 33 -2 270 -72 402 -45 86 -161 207 -243 255 -68 39 -87 43 -126 32z m163 -194 c67 -72 131 -172 153 -238 6 -21 10 -40 8 -42 -2 -2 -34 -5 -73 -6 l-69 -2 -14 34 c-8 19 -39 90 -69 157 -30 68 -58 142 -61 164 l-5 41 33 -19 c18 -10 61 -50 97 -89z m231 -392 l3 -33 -51 0 c-42 0 -51 -3 -46 -15 14 -37 37 -187 31 -205 -8 -25 -41 -26 -54 -2 -5 10 -15 64 -22 120 l-13 102 -185 1 c-103 1 -215 4 -251 8 l-65 6 72 12 c91 16 436 41 538 39 38 -1 40 -3 43 -33z m-257 -188 c8 -3 21 -21 28 -40 11 -33 10 -39 -18 -89 -17 -29 -31 -56 -31 -60 0 -3 50 -6 111 -6 l111 0 -7 -47 c-14 -95 -68 -141 -151 -129 -127 17 -222 127 -273 315 l-21 74 118 -6 c64 -3 124 -8 133 -12z m328 -354 l34 -18 -71 -60 c-236 -204 -427 -263 -615 -193 -67 25 -143 90 -176 151 l-24 44 59 -61 c32 -34 77 -71 100 -82 55 -28 153 -47 189 -37 l30 8 -38 8 c-55 13 -107 42 -146 83 -32 33 -33 36 -13 36 11 0 67 -12 123 -26 140 -36 220 -31 324 20 53 26 88 52 122 91 27 30 53 55 58 54 6 0 25 -8 44 -18z m182 -82 c27 -12 49 -25 49 -29 0 -4 -18 -10 -41 -13 -53 -7 -121 -53 -239 -161 -166 -152 -253 -198 -411 -217 -212 -26 -407 49 -475 183 l-25 49 53 -43 c167 -136 426 -165 614 -70 87 44 138 84 269 210 66 62 127 112 137 112 11 0 42 -10 69 -21z m-2240 -259 c45 -107 128 -303 184 -435 57 -132 105 -246 107 -254 2 -8 -11 -20 -30 -28 -33 -13 -33 -13 -46 19 -13 32 -314 906 -322 937 -9 33 28 -50 107 -239z m2460 43 c52 -23 89 -58 89 -85 0 -22 6 -22 -72 -2 -195 50 -329 -36 -500 -325 -35 -58 -39 -62 -33 -31 34 173 171 385 288 445 44 23 61 26 117 22 36 -2 86 -13 111 -24z m-1325 -463 c29 -124 54 -454 36 -472 -19 -19 -52 66 -62 160 -12 111 -38 386 -45 477 l-5 70 26 -65 c14 -36 37 -112 50 -170z m1608 191 c189 -94 336 -331 393 -634 26 -141 24 -429 -5 -565 -108 -501 -412 -746 -731 -589 -73 36 -167 124 -224 210 -75 113 -135 289 -163 479 -37 251 13 593 118 807 72 148 230 287 366 321 69 17 178 5 246 -29z m-2299 -523 c-69 -64 -156 -114 -235 -133 -38 -9 -75 -15 -82 -13 -6 2 71 47 173 100 101 53 185 94 187 93 2 -2 -17 -23 -43 -47z m75 -128 c26 -14 40 -63 40 -146 0 -66 -2 -74 -19 -74 -25 0 -59 48 -77 107 -18 60 -18 88 2 107 18 19 28 20 54 6z m-175 -81 c22 -35 -26 -79 -85 -79 -24 0 -30 4 -30 23 0 37 98 85 115 56z m957 -147 c92 -35 97 -56 16 -60 -74 -4 -142 29 -170 82 -10 18 -7 19 35 13 26 -4 79 -19 119 -35z m277 13 c54 -69 25 -175 -47 -175 -39 0 -72 69 -58 123 8 35 45 77 66 77 10 0 28 -11 39 -25z m-1215 9 c21 -8 20 -33 -1 -56 -31 -34 -123 -14 -123 28 0 19 92 40 124 28z m1436 -64 c0 -21 -11 -25 -93 -34 -48 -6 -48 -6 -45 22 3 25 7 27 63 32 70 6 75 5 75 -20z m-1356 -56 c24 -24 18 -42 -21 -63 -51 -27 -120 1 -111 46 3 17 11 20 105 31 6 1 19 -5 27 -14z m124 -186 c31 -31 -11 -78 -69 -78 -36 0 -40 2 -37 22 3 22 59 68 82 68 7 0 17 -5 24 -12z m661 -423 c-8 -212 -8 -332 -1 -380 5 -38 8 -72 6 -74 -7 -8 -96 23 -101 35 -9 24 17 293 53 541 19 133 34 245 35 250 1 4 5 -8 10 -27 6 -22 5 -150 -2 -345z m441 156 c28 -49 70 -132 94 -183 58 -127 161 -387 154 -393 -10 -10 -121 -26 -129 -18 -4 4 -17 54 -28 110 -12 56 -26 114 -31 127 -22 60 -122 446 -115 446 2 0 27 -40 55 -89z m884 -696 c19 -55 33 -101 31 -103 -8 -8 -45 79 -65 149 -28 101 -8 74 34 -46z m-659 -165 c29 -72 35 -97 35 -165 0 -68 6 -97 41 -195 111 -313 151 -462 130 -483 -4 -4 -64 -3 -132 4 -68 6 -290 14 -494 18 l-370 6 1 90 c1 83 6 105 68 290 63 185 68 209 76 320 8 125 21 172 49 177 9 2 57 0 106 -5 106 -10 284 -2 375 17 36 7 69 13 73 12 4 -1 23 -39 42 -86z m-889 -216 c21 -9 56 -14 81 -12 46 3 50 1 31 -24 -12 -15 -20 -15 -93 0 -60 13 -81 22 -83 35 -4 21 14 22 64 1z m1364 -28 c0 -29 -49 -59 -102 -63 -51 -4 -52 -3 -33 12 11 10 39 25 61 35 23 10 45 23 49 29 8 14 25 5 25 -13z m-1290 -181 c0 -2 -5 -16 -12 -30 -10 -22 -16 -25 -42 -19 -17 3 -42 13 -56 22 l-25 16 25 7 c28 8 110 11 110 4z m1300 -29 c0 -13 -6 -28 -12 -34 -19 -15 -72 -24 -101 -17 -23 6 -21 9 36 40 76 41 77 41 77 11z m109 -450 c88 -45 88 -76 0 -62 -52 8 -107 37 -139 71 l-25 28 58 -7 c32 -3 80 -17 106 -30z"/>
        <path d="M4007 7799 c-124 -29 -259 -154 -340 -314 -137 -271 -159 -644 -56 -946 60 -177 187 -345 306 -404 51 -26 68 -29 148 -29 79 0 97 3 148 29 84 42 184 151 236 256 197 404 147 996 -107 1270 -74 80 -131 117 -211 135 -63 15 -71 16 -124 3z m156 -528 c40 -16 95 -80 119 -140 32 -81 31 -232 -1 -314 -50 -128 -145 -186 -230 -142 -50 26 -100 94 -123 168 -38 126 -10 302 60 381 45 50 116 69 175 47z"/>
        <path d="M4064 7200 c-96 -39 -135 -250 -70 -378 55 -108 157 -122 215 -29 26 43 26 51 2 37 -31 -16 -57 -12 -90 15 -86 73 -77 259 17 322 31 21 32 22 13 32 -23 13 -57 13 -87 1z"/>
        <path d="M6585 8890 c-38 -10 -236 -89 -440 -175 -1168 -495 -1103 -465 -1192 -556 -28 -28 -63 -76 -78 -106 -58 -114 -58 -107 -62 -873 -2 -388 0 -853 5 -1035 11 -375 18 -413 95 -527 81 -121 150 -161 1112 -641 637 -318 702 -349 791 -372 79 -21 223 -21 302 -1 124 33 723 306 1287 589 316 158 358 186 426 290 41 64 65 125 79 208 15 87 34 2154 21 2241 -27 171 -115 286 -284 367 -137 67 -1567 551 -1757 595 -88 21 -219 19 -305 -4z m285 -241 c94 -11 176 -42 191 -71 38 -72 -78 -128 -264 -128 -137 0 -257 37 -279 85 -24 53 43 97 172 114 93 12 87 12 180 0z m1152 -339 c71 -22 108 -53 108 -90 0 -59 -95 -100 -250 -107 -176 -8 -320 40 -320 106 0 36 21 58 77 83 92 41 268 44 385 8z m-1985 -55 c149 -42 151 -130 3 -176 -131 -40 -317 -31 -419 20 -81 42 -76 96 13 137 101 46 278 54 403 19z m2619 -277 c4 -6 -3 -20 -17 -31 -47 -40 -1175 -583 -1429 -689 -47 -20 -114 -98 -135 -156 -26 -73 -33 -286 -40 -1228 -4 -474 -10 -876 -14 -894 -8 -40 -34 -61 -53 -42 -10 10 -14 228 -18 1055 -6 1185 -1 1109 -88 1196 -45 44 -65 53 -502 220 -477 182 -744 287 -995 391 -248 102 -265 111 -265 132 0 18 4 19 37 13 40 -7 517 -179 973 -350 797 -299 826 -308 942 -286 35 7 95 25 133 41 104 41 538 234 980 435 479 218 476 217 491 193z m-1539 -92 c201 -63 123 -193 -128 -213 -137 -11 -305 36 -331 91 -38 84 102 150 302 142 58 -2 128 -11 157 -20z m1441 -422 c12 -8 32 -34 43 -56 32 -63 24 -190 -18 -279 -91 -196 -262 -252 -318 -105 -21 55 -16 173 9 246 55 152 201 252 284 194z m-2134 -443 c99 -52 166 -175 166 -302 0 -193 -162 -260 -307 -126 -64 59 -107 153 -112 245 -5 118 26 179 106 207 47 16 83 10 147 -24z m-619 -402 c154 -73 251 -322 171 -442 -64 -95 -190 -84 -301 28 -116 115 -149 294 -72 381 17 20 40 40 51 44 38 15 105 10 151 -11z m2122 -254 c82 -41 127 -127 127 -245 0 -149 -34 -211 -238 -435 -75 -82 -131 -152 -126 -153 9 -3 184 18 273 33 l28 5 -6 -53 c-13 -118 -17 -137 -26 -137 -5 0 -116 -16 -246 -35 -130 -19 -241 -35 -246 -35 -6 0 -8 38 -4 97 l6 96 120 121 c253 254 342 417 286 525 -17 34 -33 41 -87 41 -35 0 -47 -6 -82 -43 -22 -23 -49 -57 -58 -75 l-18 -33 -45 31 c-35 24 -45 37 -45 58 1 84 112 213 215 250 53 19 117 14 172 -13z m481 -70 c106 -32 165 -114 165 -230 0 -87 -25 -149 -80 -195 l-40 -33 40 -31 c57 -44 75 -73 88 -140 25 -138 -26 -262 -131 -316 -100 -51 -265 -46 -339 10 l-24 17 18 72 c9 39 21 73 25 76 5 3 31 -9 59 -26 40 -25 62 -32 103 -32 98 -1 148 47 148 140 0 88 -48 133 -158 148 l-53 7 3 71 3 72 55 6 c94 10 130 43 130 117 0 35 -6 49 -29 73 -26 26 -36 29 -91 29 -33 0 -77 -7 -97 -15 -20 -8 -37 -14 -38 -13 -2 2 -4 39 -6 83 l-4 79 30 15 c68 33 146 39 223 16z m-3091 -151 c71 -41 133 -130 159 -229 17 -61 17 -98 3 -148 -37 -134 -180 -142 -293 -16 -56 62 -85 121 -98 202 -14 77 -5 127 29 168 54 63 118 71 200 23z"/>
        <path d="M1500 4127 c-30 -15 -38 -58 -16 -91 9 -14 32 -28 58 -34 102 -26 140 -73 234 -287 36 -82 106 -242 156 -355 49 -113 165 -385 258 -605 259 -617 273 -646 295 -661 12 -8 67 -16 140 -20 118 -7 121 -6 147 17 17 16 74 134 169 354 258 595 404 919 416 923 16 5 9 21 288 -671 128 -318 240 -586 249 -596 23 -26 109 -35 243 -26 91 7 110 11 126 29 17 20 248 513 599 1281 185 406 219 474 259 520 38 43 95 77 169 100 68 22 90 40 90 76 0 59 1 59 -500 59 -509 0 -500 1 -500 -65 0 -43 19 -56 125 -85 44 -11 94 -30 111 -41 53 -33 66 -96 39 -198 -27 -104 -317 -837 -408 -1031 l-39 -85 -44 90 c-50 105 -294 687 -401 959 -69 175 -87 246 -69 274 3 6 36 20 72 32 50 17 68 28 75 47 11 30 2 71 -20 82 -9 5 -192 11 -407 12 -377 4 -393 3 -413 -15 -17 -15 -21 -29 -19 -60 3 -39 5 -41 53 -59 83 -31 136 -98 163 -208 14 -57 19 -42 -166 -499 -171 -421 -221 -540 -255 -605 -25 -49 -25 -49 -35 -25 -6 14 -105 266 -222 560 -239 603 -260 660 -260 706 0 41 14 50 106 64 91 15 118 29 122 62 5 40 -14 66 -56 78 -57 15 -900 13 -932 -3z"/>
        <path d="M5541 4131 c-31 -8 -48 -53 -33 -86 8 -17 27 -28 69 -39 175 -49 193 -89 158 -346 -7 -58 -39 -292 -70 -520 -30 -228 -62 -463 -71 -523 -34 -246 -94 -339 -237 -371 -42 -9 -55 -17 -66 -41 -12 -25 -12 -35 0 -69 l14 -41 416 0 c396 0 418 1 438 19 29 27 28 81 -1 100 -13 8 -59 24 -103 36 -134 36 -185 80 -185 159 0 25 14 161 30 301 17 140 46 397 66 570 19 173 37 316 39 318 7 7 124 -224 420 -828 223 -456 315 -634 340 -660 33 -32 39 -35 94 -33 32 0 72 8 88 16 33 17 6 -32 461 842 138 264 271 516 295 559 l46 79 5 -34 c13 -78 106 -1075 106 -1135 0 -63 -2 -68 -34 -99 -23 -21 -60 -40 -111 -56 -84 -25 -115 -52 -115 -100 0 -57 -1 -57 520 -61 441 -3 478 -2 503 15 34 22 45 62 26 96 -11 20 -36 33 -103 56 -101 34 -137 64 -160 133 -9 25 -32 190 -51 366 -20 177 -53 481 -75 676 -22 195 -40 378 -40 405 0 87 39 128 145 154 76 19 95 34 95 81 0 29 -5 42 -19 50 -13 6 -144 10 -359 10 -299 0 -341 -2 -353 -16 -8 -9 -172 -332 -365 -717 -193 -386 -356 -703 -362 -705 -11 -3 -154 281 -568 1126 -134 274 -146 294 -178 307 -29 12 -96 15 -363 14 -180 -1 -339 -4 -352 -8z"/>
        <path d="M1514 1733 c3 -10 23 -115 46 -233 22 -118 55 -289 73 -380 l32 -165 70 0 70 0 37 224 c20 123 39 225 41 227 3 3 43 -212 75 -406 l8 -45 69 1 c38 1 70 6 72 10 6 20 143 759 143 771 0 9 -18 13 -64 13 l-63 0 -44 -266 c-26 -160 -47 -258 -51 -247 -7 17 -59 327 -76 453 l-7 55 -63 3 c-41 2 -62 -1 -62 -8 0 -17 -70 -472 -77 -500 -4 -16 -22 68 -50 230 -24 140 -45 261 -48 268 -3 8 -27 12 -70 12 -59 0 -66 -2 -61 -17z"/>
        <path d="M2407 1743 c-4 -6 -164 -738 -170 -778 -1 -6 25 -10 63 -10 l64 0 16 80 16 80 81 3 c79 3 83 2 87 -20 3 -13 11 -50 18 -83 l13 -60 63 -1 c34 -1 62 2 62 5 0 25 -158 769 -165 782 -7 11 -142 12 -148 2z m133 -500 c0 -9 -19 -13 -60 -13 -42 0 -60 4 -60 13 0 7 9 53 19 102 11 50 25 117 32 150 l12 60 28 -150 c16 -82 29 -156 29 -162z"/>
        <path d="M3394 1731 c-46 -21 -77 -58 -101 -123 -21 -58 -30 -365 -13 -466 21 -127 81 -189 193 -200 70 -7 131 14 171 59 47 51 56 91 56 247 l0 132 -85 0 c-47 0 -88 0 -92 0 -5 0 -8 -24 -8 -52 l0 -53 33 0 32 0 0 -75 c0 -116 -38 -161 -113 -137 -50 17 -61 54 -65 235 -5 196 2 260 32 304 18 28 28 33 60 33 47 0 74 -31 78 -87 l2 -36 59 -4 c32 -2 61 0 62 3 2 3 0 33 -5 67 -11 80 -42 129 -94 153 -54 25 -148 25 -202 0z"/>
        <path d="M3925 1738 c-3 -13 -165 -753 -168 -773 -1 -6 25 -10 63 -10 l64 0 16 80 16 80 81 3 c93 3 80 15 106 -102 l12 -60 63 0 c37 -1 62 3 62 9 0 6 -36 181 -80 389 -44 208 -80 382 -80 387 0 15 -150 11 -155 -3z m134 -490 c1 -15 -8 -18 -59 -18 -33 0 -60 4 -60 10 0 9 44 228 56 280 4 17 15 -19 35 -115 15 -77 28 -148 28 -157z"/>
        <path d="M4705 1665 c-13 -44 -43 -144 -66 -223 -23 -78 -43 -141 -44 -140 -2 2 -33 101 -70 221 l-68 217 -74 0 -73 0 0 -390 0 -390 44 0 c24 0 51 -3 60 -6 14 -5 16 19 16 232 0 132 4 232 9 224 4 -8 30 -86 57 -173 l48 -158 50 3 50 3 56 170 55 170 3 -235 2 -235 58 2 57 1 3 390 2 390 -75 4 -75 3 -25 -80z"/>
        <path d="M4984 1735 c-3 -6 -3 -183 -2 -395 l3 -385 173 -3 172 -2 0 60 0 60 -110 0 -110 0 0 110 0 110 85 0 85 0 0 60 0 60 -85 0 -85 0 0 110 0 110 110 0 110 0 0 58 0 57 -171 0 c-106 0 -173 -4 -175 -10z"/>
        <path d="M5491 1728 c-61 -33 -91 -90 -91 -173 0 -90 33 -147 140 -238 101 -86 130 -126 130 -177 0 -46 -25 -78 -67 -86 -42 -8 -78 27 -88 84 l-7 42 -60 0 -61 0 6 -61 c9 -105 70 -166 177 -177 153 -15 255 108 222 266 -16 76 -50 123 -135 186 -39 29 -82 65 -95 78 -63 69 -39 168 41 168 33 0 55 -27 59 -75 l4 -40 58 -3 58 -3 -4 65 c-7 110 -58 159 -171 164 -61 3 -79 0 -116 -20z"/>
        <path d="M6421 1538 c-35 -117 -67 -219 -71 -226 -4 -8 -11 4 -19 30 -7 24 -38 123 -68 221 l-56 177 -74 0 -73 0 0 -396 0 -396 63 4 62 3 0 232 c0 127 2 229 4 227 3 -2 28 -77 56 -167 l51 -162 49 0 49 0 58 170 58 170 0 -238 0 -239 58 4 57 3 0 393 0 394 -70 4 -71 5 -63 -213z"/>
        <path d="M2790 1350 l0 -390 49 0 c27 0 56 -3 65 -6 14 -5 16 11 16 141 l0 146 36 -3 37 -3 46 -140 46 -140 65 0 c38 0 64 4 63 10 -1 6 -25 79 -54 163 l-52 153 26 27 c41 43 59 99 60 182 1 91 -15 148 -50 191 -42 50 -77 59 -223 59 l-130 0 0 -390z m231 267 c29 -18 49 -70 49 -129 0 -70 -26 -113 -77 -127 -76 -21 -73 -27 -73 127 0 76 3 142 7 146 10 9 69 -2 94 -17z"/>
        <path d="M6781 1358 c-46 -211 -84 -387 -85 -393 0 -6 26 -10 64 -10 l65 0 15 80 15 80 81 3 81 3 18 -86 18 -85 65 0 c61 0 64 1 60 23 -3 12 -40 190 -84 395 l-78 372 -76 0 -75 0 -84 -382z m191 34 c15 -75 27 -143 27 -149 1 -9 -18 -13 -60 -13 l-61 0 5 28 c3 15 16 84 28 154 13 70 26 125 28 122 3 -3 18 -67 33 -142z"/>
        <path d="M7240 1350 l0 -390 131 0 c149 0 180 9 230 69 51 62 64 124 64 321 0 204 -13 266 -71 330 -46 51 -81 60 -231 60 l-123 0 0 -390z m243 260 c42 -34 52 -80 52 -255 0 -227 -25 -285 -122 -285 l-43 0 0 280 0 280 44 0 c28 0 52 -7 69 -20z"/>
        <path d="M7757 1348 l5 -393 61 0 62 0 3 143 3 142 29 0 c28 0 29 -3 77 -145 l47 -145 69 0 c38 0 67 4 65 8 -1 5 -27 77 -57 161 l-54 152 25 27 c41 43 59 88 65 160 8 93 -11 174 -50 219 -48 54 -79 63 -225 63 l-129 0 4 -392z m224 272 c32 -18 49 -64 49 -134 0 -57 -3 -70 -27 -96 -20 -22 -40 -33 -70 -37 l-42 -5 -3 141 -3 141 38 0 c21 0 47 -5 58 -10z"/>
        <path d="M8250 1347 l0 -393 65 -2 65 -2 0 395 0 395 -65 0 -65 0 0 -393z"/>
        <path d="M8480 1350 l0 -390 83 -2 c176 -5 217 3 264 54 60 64 90 219 79 405 -9 146 -26 202 -79 257 -53 55 -91 66 -234 66 l-113 0 0 -390z m230 265 c51 -26 65 -86 64 -265 -1 -226 -23 -278 -118 -284 l-46 -3 0 283 0 284 35 0 c20 0 49 -7 65 -15z"/>
    </g>
</svg>
